<svg width="250" height="362" viewBox="0 0 250 362" fill="none" xmlns="http://www.w3.org/2000/svg">
<path d="M125 22.6011L233.253 85.2008V210.4L125 273L16.7468 210.4V85.2008L125 22.6011Z" fill="#009ED8"/>
<path d="M74.7686 180.223V68.7181C86.4171 54.2125 97.0705 62.6741 100.941 68.7181V120.614L221.268 0.564277C237.749 -2.81213 240.308 9.78683 239.528 16.5084L74.7686 180.223Z" fill="#0ACF83"/>
<path d="M74.7686 237.516V202.212L103.778 174.718L120.934 191.277L74.7686 237.516Z" fill="white"/>
<path d="M189.888 235.542L115.632 161.284L185.816 90.3628C205.779 88.1134 205.779 101.506 203.284 108.484L150.689 161.284L212.409 222.507L189.888 235.542Z" fill="white"/>
<path d="M27.8714 351V316.818H34.0636V332.524H34.4808L47.8164 316.818H55.3771L42.1584 332.157L55.494 351H48.0501L37.8523 336.346L34.0636 340.819V351H27.8714ZM64.0686 351H57.4593L69.493 316.818H77.1372L89.1876 351H82.5782L73.4486 323.828H73.1816L64.0686 351ZM64.2856 337.598H82.3112V342.571H64.2856V337.598ZM121.78 316.818V351H116.272L100.166 327.717H99.8819V351H93.6898V316.818H99.231L115.32 340.118H115.621V316.818H121.78ZM128.527 351V316.818H141.612C144.082 316.818 146.135 317.208 147.771 317.987C149.417 318.754 150.647 319.806 151.459 321.141C152.283 322.476 152.694 323.989 152.694 325.681C152.694 327.072 152.427 328.262 151.893 329.252C151.359 330.232 150.641 331.027 149.74 331.639C148.839 332.251 147.832 332.691 146.719 332.958V333.292C147.932 333.358 149.095 333.731 150.207 334.41C151.331 335.077 152.249 336.023 152.961 337.247C153.674 338.471 154.03 339.951 154.03 341.687C154.03 343.456 153.601 345.047 152.744 346.46C151.888 347.862 150.597 348.969 148.872 349.782C147.148 350.594 144.978 351 142.363 351H128.527ZM134.719 345.826H141.378C143.626 345.826 145.245 345.398 146.235 344.541C147.237 343.673 147.737 342.56 147.737 341.203C147.737 340.19 147.487 339.278 146.986 338.466C146.486 337.642 145.773 336.997 144.85 336.529C143.926 336.051 142.825 335.812 141.545 335.812H134.719V345.826ZM134.719 331.355H140.844C141.912 331.355 142.875 331.161 143.732 330.771C144.588 330.371 145.262 329.809 145.751 329.086C146.252 328.351 146.502 327.483 146.502 326.482C146.502 325.158 146.035 324.067 145.1 323.211C144.177 322.354 142.803 321.925 140.978 321.925H134.719V331.355ZM163.806 351H157.197L169.23 316.818H176.874L188.925 351H182.316L173.186 323.828H172.919L163.806 351ZM164.023 337.598H182.048V342.571H164.023V337.598ZM221.517 316.818V351H216.009L199.903 327.717H199.619V351H193.427V316.818H198.968L215.058 340.118H215.358V316.818H221.517Z" fill="#009ED8"/>
</svg>
